<svg xmlns="http://www.w3.org/2000/svg" viewBox="0 0 600 240">
  <rect x="20" y="20" width="560" height="200" rx="16" fill="#fffaf0" stroke="#d6d6d6" stroke-width="2" stroke-dasharray="6 6" />
  <text x="30" y="50" font-size="16" fill="#4b4b4b" font-family="Patrick Hand, cursive">Press count by pattern</text>
  <g stroke="#2f2f2f" stroke-width="2" fill="none" stroke-linecap="round">
    <line x1="80" y1="180" x2="520" y2="180" />
    <line x1="80" y1="80" x2="80" y2="180" />
  </g>
  <g fill="#cfe8ff" stroke="#2f2f2f" stroke-width="2">
    <rect x="120" y="120" width="60" height="60" rx="6" />
    <rect x="240" y="90" width="60" height="90" rx="6" />
    <rect x="360" y="60" width="60" height="120" rx="6" />
  </g>
  <g fill="#d5f4e6" stroke="#2f2f2f" stroke-width="2">
    <rect x="190" y="140" width="40" height="40" rx="6" />
    <rect x="310" y="120" width="40" height="60" rx="6" />
    <rect x="430" y="100" width="40" height="80" rx="6" />
  </g>
  <g fill="#ffe0b2" stroke="#2f2f2f" stroke-width="2">
    <rect x="210" y="160" width="20" height="20" rx="6" />
    <rect x="330" y="150" width="20" height="30" rx="6" />
    <rect x="450" y="140" width="20" height="40" rx="6" />
  </g>
  <text x="110" y="200" font-size="12" fill="#2f2f2f" font-family="Patrick Hand, cursive">16</text>
  <text x="230" y="200" font-size="12" fill="#2f2f2f" font-family="Patrick Hand, cursive">36</text>
  <text x="350" y="200" font-size="12" fill="#2f2f2f" font-family="Patrick Hand, cursive">64</text>
  <text x="470" y="200" font-size="12" fill="#2f2f2f" font-family="Patrick Hand, cursive">100</text>
  <text x="520" y="120" font-size="12" fill="#4b4b4b" font-family="Patrick Hand, cursive">Linear</text>
  <text x="520" y="140" font-size="12" fill="#4b4b4b" font-family="Patrick Hand, cursive">Row/Col</text>
  <text x="520" y="160" font-size="12" fill="#4b4b4b" font-family="Patrick Hand, cursive">Elimination</text>
</svg>
